# xmcd
#
# Track frame offsets: 
#        150
#        14293
#        27329
#        40222
#        55314
#        70705
#        86330
#        101685
#        119074
#        136634
#        150417
#        163921
#        180959
#        195165
#        209113
#        222911
#        235320
#        251222
#        264762
#        281627
#        293362
#        307032
#
# Disc length: 4290 seconds
#
# Revision: 0
# Processed by: cddbd v1.5.2PL0 Copyright (c) Steve Scherf et al.
# Submitted via: ExactAudioCopyFreeDBPlugin 1.0
#
DISCID=3410c016
DTITLE=Waylon Jennings - Nashville Rebel - CD 04
DYEAR=2006
DGENRE=Country
TTITLE0=Storms Never Last (with Jessi Colter)
TTITLE1=Shine
TTITLE2=Just to Satisfy You (With Willie Nelson)
TTITLE3=Women Do Know How to Carry On
TTITLE4=(Sittin' on) The Dock of the Bay (With Willie Nelson)
TTITLE5=Lucille (You Won't Do Your Daddy's Will)
TTITLE6=Breakin' Down
TTITLE7=Take It to the Limit
TTITLE8=The Conversation
TTITLE9=I May Be Used (But Baby I Ain't Used Up)
TTITLE10=Never Could Toe the Mark
TTITLE11=America
TTITLE12=Waltz Me to Heaven
TTITLE13=Highwayman (With The Highwaymen)
TTITLE14=Drinkin' and Dreamin'
TTITLE15=Working Without a Net
TTITLE16=Will the Wolf Survive
TTITLE17=What You'll Do When I'm Gone
TTITLE18=Rose in Paradise
TTITLE19=Rough and Rowdy Days
TTITLE20=Wrong
TTITLE21=I Do Believe (With The Highwaymen)
EXTD=
EXTT0=
EXTT1=
EXTT2=
EXTT3=
EXTT4=
EXTT5=
EXTT6=
EXTT7=
EXTT8=
EXTT9=
EXTT10=
EXTT11=
EXTT12=
EXTT13=
EXTT14=
EXTT15=
EXTT16=
EXTT17=
EXTT18=
EXTT19=
EXTT20=
EXTT21=
PLAYORDER=
